<svg width="17" height="12" viewBox="0 0 17 12" fill="none" xmlns="http://www.w3.org/2000/svg">
<path d="M11.1 10.2C11.5971 10.2 12 10.6029 12 11.1C12 11.5971 11.5971 12 11.1 12H5.7C5.20294 12 4.8 11.5971 4.8 11.1C4.8 10.6029 5.20294 10.2 5.7 10.2H11.1ZM13.5 5.1C13.9971 5.1 14.4 5.50294 14.4 6C14.4 6.49706 13.9971 6.9 13.5 6.9H3.3C2.80294 6.9 2.4 6.49706 2.4 6C2.4 5.50294 2.80294 5.1 3.3 5.1H13.5ZM15.9 0C16.3971 0 16.8 0.402944 16.8 0.9C16.8 1.39706 16.3971 1.8 15.9 1.8H0.9C0.402944 1.8 0 1.39706 0 0.9C0 0.402944 0.402944 0 0.9 0H15.9Z" fill="#3C86F4"/>
</svg>
